<svg width="500" height="500" viewBox="0 0 500 500" fill="none" xmlns="http://www.w3.org/2000/svg">
<rect width="500" height="500" rx="250" fill="#CFD8FE"/>
<path d="M330.344 286.72C329.497 286.472 328.588 286.336 327.64 286.336H171.307C170.363 286.336 169.453 286.472 168.607 286.72C165.063 287.752 162.576 290.766 162.803 294.221L171.426 371.781C171.685 375.723 175.417 378.807 179.93 378.807H318.762C323.267 378.807 326.993 375.737 327.266 371.804L336.144 294.241C336.385 290.783 333.894 287.758 330.344 286.72ZM249.473 346.118C241.582 346.118 235.184 340.053 235.184 332.571C235.184 325.09 241.582 319.025 249.473 319.025C257.365 319.025 263.763 325.09 263.763 332.571C263.763 340.053 257.365 346.118 249.473 346.118Z" fill="#1F327E"/>
<path d="M329.693 280.088H170.111C170.111 279.972 170.111 279.856 170.111 279.743C170.307 261.492 185.971 246.755 205.269 246.755H223.333L223.749 247.15L224.526 247.886L244.954 267.248L249.9 271.937L254.846 267.248L276.037 247.16L276.464 246.755H294.528C304.238 246.755 313.029 250.486 319.392 256.518C325.695 262.493 329.613 270.724 329.686 279.826C329.69 279.912 329.69 280.002 329.69 280.088H329.693Z" fill="#1F327E"/>
<path d="M271.095 232.778V242.471L249.904 262.56L233.229 246.755L228.699 242.461V232.771C231.015 234.798 233.568 236.476 236.318 237.782C238.091 238.624 239.917 239.297 241.781 239.792C242.236 239.914 242.691 240.027 243.149 240.123C245.353 240.611 247.609 240.853 249.9 240.853C252.191 240.853 254.448 240.611 256.651 240.123C257.11 240.027 257.568 239.914 258.023 239.792C259.884 239.297 261.71 238.624 263.483 237.782C266.232 236.479 268.779 234.801 271.095 232.778Z" fill="#1F327E"/>
<path d="M364.719 232.775C354.036 236.296 345.574 244.315 341.856 254.442C341.335 255.861 339.225 255.861 338.704 254.442C334.989 244.311 326.531 236.286 315.845 232.761C314.348 232.267 314.348 230.268 315.845 229.774C326.531 226.252 334.993 218.23 338.715 208.107C339.236 206.687 341.345 206.687 341.866 208.107C345.581 218.234 354.039 226.259 364.719 229.787C366.216 230.281 366.216 232.281 364.719 232.775Z" fill="#1F327E"/>
<path d="M385.574 202.801C378.896 205.076 373.6 210.096 371.197 216.427C370.826 217.405 369.382 217.405 369.011 216.427C366.611 210.093 361.315 205.072 354.638 202.794C353.606 202.443 353.606 201.073 354.638 200.722C361.315 198.447 366.615 193.426 369.018 187.096C369.389 186.118 370.833 186.118 371.204 187.096C373.604 193.426 378.896 198.45 385.574 200.728C386.606 201.08 386.606 202.449 385.574 202.801Z" fill="#1F327E"/>
<path d="M352.962 181.631C347.159 183.296 342.583 187.633 340.827 193.131C340.663 193.649 339.901 193.649 339.736 193.131C337.98 187.63 333.405 183.289 327.602 181.625C327.056 181.469 327.056 180.746 327.602 180.59C333.405 178.925 337.98 174.588 339.743 169.09C339.908 168.573 340.67 168.573 340.834 169.09C342.59 174.591 347.166 178.929 352.966 180.597C353.511 180.752 353.511 181.475 352.966 181.631H352.962Z" fill="#1F327E"/>
<path d="M295.143 190.498V239.792H278.091V224.465C281.767 218.479 283.743 211.436 283.743 204.081V169.896C284.835 170.685 285.825 171.507 286.717 172.343C287.875 173.427 288.875 174.541 289.739 175.659C295.444 183.037 295.143 190.498 295.143 190.498Z" fill="#1F327E"/>
<path d="M276.747 166.692V204.081C276.747 211.887 274.103 219 269.765 224.352C268.796 225.549 267.744 226.66 266.614 227.668C265.194 228.941 263.654 230.052 262.017 230.984C258.379 233.053 254.262 234.221 249.9 234.221C245.538 234.221 241.421 233.053 237.783 230.984C236.146 230.052 234.607 228.941 233.183 227.668C232.053 226.66 231.001 225.549 230.032 224.352C225.694 219 223.05 211.887 223.05 204.081V185.481C237.993 185.481 251.905 181.87 263.553 175.659C265.491 174.624 267.369 173.517 269.174 172.343C270.797 171.292 272.364 170.184 273.869 169.027C274.18 168.788 274.484 168.549 274.789 168.307C275.453 167.78 276.107 167.24 276.747 166.692Z" fill="#1F327E"/>
<path d="M269.828 163.595C267.275 165.591 264.564 167.405 261.717 169.027C259.586 170.241 257.379 171.345 255.105 172.343C252.156 173.636 249.096 174.744 245.94 175.659C245.538 175.775 245.136 175.888 244.734 175.997C237.86 177.874 230.567 178.849 223.053 178.849H216.057V204.081C216.057 211.429 218.03 218.469 221.706 224.455V239.792H204.657V190.498C204.657 190.498 204.356 183.037 210.061 175.659C210.925 174.545 211.926 173.427 213.087 172.343C214.312 171.196 215.711 170.078 217.316 169.027C218.509 168.244 219.814 167.495 221.241 166.795C227.831 163.555 237.042 161.314 249.904 161.314C257.865 161.314 264.427 162.173 269.832 163.595H269.828Z" fill="#1F327E"/>
<path d="M288.945 148.918V165.333C288.168 164.729 287.36 164.152 286.524 163.602C285.629 163.012 284.702 162.448 283.744 161.917C282.624 161.294 281.456 160.714 280.245 160.173C280.004 160.064 279.763 159.958 279.518 159.851C278.357 159.354 277.157 158.893 275.915 158.469C268.597 155.948 259.905 154.682 249.9 154.682C234.523 154.682 222.242 157.679 213.276 163.602C212.437 164.152 211.632 164.729 210.852 165.333V148.918C210.852 141.155 228.335 134.862 249.9 134.862C271.466 134.862 288.945 141.155 288.945 148.918Z" fill="#1F327E"/>
<path d="M331.666 145.496L295.941 159.825V148.918C295.941 146.265 295.007 142.303 290.551 138.512C287.941 136.291 284.387 134.361 279.994 132.779C271.847 129.844 261.157 128.229 249.9 128.229C238.644 128.229 227.954 129.844 219.807 132.779C215.41 134.361 211.859 136.291 209.246 138.512C204.79 142.303 203.856 146.265 203.856 148.918V159.825L174.207 147.933V165.402L180.738 178.103C182.305 181.15 182.109 184.689 180.213 187.564C178.317 190.439 175.05 192.156 171.471 192.156C167.893 192.156 164.703 190.475 162.796 187.663C160.893 184.848 160.631 181.353 162.1 178.312L168.26 165.575V145.549L168.131 145.496C163.125 143.487 163.076 136.778 168.05 134.702L241.683 103.989C246.92 101.807 252.881 101.807 258.117 103.989L331.747 134.702C336.724 136.778 336.672 143.487 331.666 145.496Z" fill="#1F327E"/>
</svg>
