<svg width="64" height="64" viewBox="0 0 64 64" fill="none" xmlns="http://www.w3.org/2000/svg">
<path d="M46.6915 38.7146C46.5367 38.6691 46.3704 38.6442 46.197 38.6442H17.6104C17.4377 38.6442 17.2714 38.6691 17.1166 38.7146C16.4687 38.9032 16.0139 39.4544 16.0555 40.0862L17.6322 54.2684C17.6795 54.9894 18.362 55.5533 19.1871 55.5533H44.5736C45.3975 55.5533 46.0787 54.9918 46.1286 54.2727L47.752 40.0898C47.7961 39.4574 47.3407 38.9044 46.6915 38.7146ZM31.9037 49.5758C30.4607 49.5758 29.2908 48.4668 29.2908 47.0988C29.2908 45.7308 30.4607 44.6218 31.9037 44.6218C33.3468 44.6218 34.5166 45.7308 34.5166 47.0988C34.5166 48.4668 33.3468 49.5758 31.9037 49.5758Z" fill="white"/>
<path d="M46.5724 37.5019H17.3916C17.3916 37.4806 17.3916 37.4594 17.3916 37.4388C17.4274 34.1014 20.2917 31.4067 23.8206 31.4067H27.1237L27.1998 31.4788L27.3418 31.6134L31.0772 35.154L31.9817 36.0114L32.8861 35.154L36.761 31.4806L36.8391 31.4067H40.1422C41.9178 31.4067 43.5252 32.0888 44.6887 33.1918C45.8413 34.2845 46.5577 35.7895 46.5711 37.4539C46.5718 37.4697 46.5718 37.4861 46.5718 37.5019H46.5724Z" fill="white"/>
<path d="M35.8572 28.8508V30.6232L31.9823 34.2966L28.9332 31.4067L28.1049 30.6214V28.8496C28.5283 29.2201 28.9952 29.5269 29.498 29.7659C29.8223 29.9199 30.1562 30.043 30.4971 30.1333C30.5802 30.1557 30.6634 30.1764 30.7472 30.1939C31.1502 30.2831 31.5627 30.3273 31.9817 30.3273C32.4006 30.3273 32.8132 30.2831 33.2162 30.1939C33.3 30.1764 33.3838 30.1557 33.4669 30.1333C33.8072 30.043 34.1411 29.9199 34.4654 29.7659C34.9681 29.5275 35.4338 29.2207 35.8572 28.8508Z" fill="white"/>
<path d="M52.9771 28.8502C51.0237 29.4942 49.4764 30.9604 48.7965 32.8122C48.7012 33.0718 48.3155 33.0718 48.2202 32.8122C47.5409 30.9598 45.9942 29.4924 44.0402 28.8478C43.7664 28.7575 43.7664 28.3918 44.0402 28.3015C45.9942 27.6575 47.5415 26.1907 48.2221 24.3395C48.3174 24.08 48.7031 24.08 48.7984 24.3395C49.4777 26.1913 51.0243 27.6587 52.9771 28.3039C53.2509 28.3943 53.2509 28.7599 52.9771 28.8502Z" fill="white"/>
<path d="M56.7906 23.3693C55.5696 23.7853 54.6012 24.7033 54.1617 25.8609C54.0939 26.0397 53.8298 26.0397 53.762 25.8609C53.3232 24.7027 52.3548 23.7847 51.1337 23.3681C50.945 23.3038 50.945 23.0534 51.1337 22.9891C52.3548 22.5731 53.3238 21.6551 53.7633 20.4976C53.8311 20.3187 54.0952 20.3187 54.163 20.4976C54.6018 21.6551 55.5696 22.5738 56.7906 22.9903C56.9793 23.0546 56.9793 23.305 56.7906 23.3693Z" fill="white"/>
<path d="M50.8273 19.4983C49.7662 19.8027 48.9295 20.5958 48.6084 21.6011C48.5783 21.6957 48.4389 21.6957 48.4088 21.6011C48.0877 20.5952 47.2511 19.8015 46.1899 19.4971C46.0902 19.4686 46.0902 19.3364 46.1899 19.3079C47.2511 19.0035 48.0877 18.2104 48.4101 17.205C48.4402 17.1104 48.5796 17.1104 48.6097 17.205C48.9308 18.211 49.7674 19.0041 50.8279 19.3091C50.9277 19.3376 50.9277 19.4698 50.8279 19.4983H50.8273Z" fill="white"/>
<path d="M40.2548 21.1197V30.1333H37.1366V27.3307C37.8089 26.2362 38.1702 24.9483 38.1702 23.6034V17.3523C38.3698 17.4967 38.5508 17.647 38.7139 17.7998C38.9257 17.9981 39.1086 18.2019 39.2666 18.4062C40.3098 19.7554 40.2548 21.1197 40.2548 21.1197Z" fill="white"/>
<path d="M36.8909 16.7666V23.6034C36.8909 25.0307 36.4074 26.3314 35.6142 27.3101C35.4371 27.529 35.2445 27.7321 35.0379 27.9164C34.7782 28.1493 34.4968 28.3524 34.1974 28.5228C33.5322 28.9012 32.7794 29.1146 31.9817 29.1146C31.1841 29.1146 30.4313 28.9012 29.766 28.5228C29.4667 28.3524 29.1853 28.1493 28.9249 27.9164C28.7183 27.7321 28.5258 27.529 28.3486 27.3101C27.5555 26.3314 27.0719 25.0307 27.0719 23.6034V20.2023C29.8044 20.2023 32.3483 19.5419 34.4782 18.4062C34.8326 18.217 35.1761 18.0145 35.5061 17.7998C35.8029 17.6076 36.0895 17.4051 36.3645 17.1935C36.4215 17.1498 36.4771 17.1062 36.5327 17.0619C36.6543 16.9655 36.7739 16.8666 36.8909 16.7666Z" fill="white"/>
<path d="M35.6258 16.2003C35.1589 16.5653 34.6631 16.897 34.1425 17.1935C33.7529 17.4154 33.3493 17.6173 32.9336 17.7998C32.3944 18.0363 31.8347 18.2389 31.2577 18.4062C31.1842 18.4274 31.1106 18.448 31.0371 18.4681C29.7802 18.8113 28.4465 18.9895 27.0726 18.9895H25.7933V23.6034C25.7933 24.9471 26.1541 26.2344 26.8263 27.3289V30.1333H23.7088V21.1197C23.7088 21.1197 23.6537 19.7554 24.697 18.4062C24.855 18.2025 25.0379 17.9981 25.2503 17.7998C25.4741 17.59 25.73 17.3857 26.0236 17.1935C26.2417 17.0504 26.4803 16.9133 26.7413 16.7854C27.9463 16.193 29.6305 15.7831 31.9824 15.7831C33.4382 15.7831 34.6382 15.9401 35.6264 16.2003H35.6258Z" fill="white"/>
<path d="M39.1213 13.5165V16.518C38.9793 16.4076 38.8315 16.3021 38.6787 16.2015C38.5149 16.0935 38.3454 15.9905 38.1702 15.8934C37.9655 15.7794 37.7518 15.6733 37.5305 15.5745C37.4864 15.5545 37.4422 15.5351 37.3975 15.5157C37.1851 15.4247 36.9657 15.3404 36.7386 15.2628C35.4005 14.802 33.811 14.5703 31.9817 14.5703C29.1698 14.5703 26.9241 15.1185 25.2847 16.2015C25.1312 16.3021 24.9841 16.4076 24.8414 16.518V13.5165C24.8414 12.097 28.0383 10.9461 31.9817 10.9461C35.925 10.9461 39.1213 12.097 39.1213 13.5165Z" fill="white"/>
<path d="M46.9332 12.8907L40.4006 15.5108V13.5165C40.4006 13.0314 40.2298 12.3068 39.4149 11.6137C38.9378 11.2074 38.2879 10.8545 37.4845 10.5653C35.9948 10.0287 34.0401 9.73337 31.9817 9.73337C29.9234 9.73337 27.9687 10.0287 26.479 10.5653C25.6749 10.8545 25.0257 11.2074 24.5479 11.6137C23.733 12.3068 23.5622 13.0314 23.5622 13.5165V15.5108L18.1407 13.3364V16.5307L19.3349 18.8531C19.6214 19.4103 19.5856 20.0573 19.2389 20.5831C18.8922 21.1088 18.2948 21.4229 17.6405 21.4229C16.9861 21.4229 16.4028 21.1154 16.0542 20.6013C15.7062 20.0864 15.6582 19.4473 15.9269 18.8913L17.0533 16.5623V12.9004L17.0296 12.8907C16.1143 12.5233 16.1053 11.2966 17.0149 10.917L30.4792 5.30084C31.4368 4.90186 32.5267 4.90186 33.4842 5.30084L46.9479 10.917C47.8581 11.2966 47.8485 12.5233 46.9332 12.8907Z" fill="white"/>
</svg>
